<svg width="86" height="34.677147" xmlns="http://www.w3.org/2000/svg">
 <defs>
  <clipPath id="clip413">
   <path id="path3358" d="m56.16016,686l43.83984,0l0,25l-43.83984,0l0,-25zm0,0"/>
  </clipPath>
  <clipPath id="clip414">
   <path id="path3361" d="m103,679.01562l16,0l0,18.98438l-16,0l0,-18.98438zm0,0"/>
  </clipPath>
  <clipPath id="clip415">
   <path id="path3364" d="m122,679.01562l16,0l0,18.98438l-16,0l0,-18.98438zm0,0"/>
  </clipPath>
  <clipPath id="clip416">
   <path id="path3367" d="m141,679.01562l14,0l0,18.98438l-14,0l0,-18.98438zm0,0"/>
  </clipPath>
  <clipPath id="clip417">
   <path id="path3370" d="m159,679.01562l14,0l0,18.98438l-14,0l0,-18.98438zm0,0"/>
  </clipPath>
  <clipPath id="clip418">
   <path id="path3373" d="m175,679.01562l15.125,0l0,18.98438l-15.125,0l0,-18.98438zm0,0"/>
  </clipPath>
  <clipPath id="clip1">
   <path id="path12837" d="m595,31l17.37109,0l0,19l-17.37109,0l0,-19zm0,0"/>
  </clipPath>
  <clipPath id="clip2">
   <path id="path12840" d="m72,79l83,0l0,24.37891l-83,0l0,-24.37891zm0,0"/>
  </clipPath>
 </defs>
 <metadata id="metadata13">image/svg+xml</metadata>
 <g>
  <title>background</title>
  <rect fill="none" id="canvas_background" height="36.67715" width="88" y="-1" x="-1"/>
 </g>
 <g>
  <title>Layer 1</title>
  <g stroke="null" id="layer1">
   <g stroke="null" id="g13718">
    <path fill="#0a70a3" fill-rule="nonzero" stroke-width="0.35278" id="path13195" d="m5.68063,47.00602c-0.32951,0 -0.5598,0.00998 -0.88183,0.01997l-0.05054,-0.06498c-0.02432,-0.50485 -0.03179,-0.86725 -0.06549,-1.3746l-0.05801,-0.95723c-0.20408,-0.00998 -0.60848,-0.00998 -0.81444,-0.00998l-0.4456,0c-0.2228,0 -0.43623,0 -0.79009,0.00998l-0.32203,0.82476c-0.1966,0.50487 -0.32953,0.86975 -0.51862,1.3771l-0.03369,0.09748l-0.06549,0.06747c-0.31267,0 -0.53546,0 -0.85562,0.00998l-0.03369,-0.09997c0.1479,-0.37238 2.37216,-5.63088 3.14728,-7.63279l0.06549,-0.04249c0.42875,-0.01248 0.84065,-0.0325 1.15331,-0.0325l0.05054,0.05247c0.03179,0.92473 0.33701,5.09353 0.56729,7.68779l-0.04876,0.06754zm-1.29373,-7.01547l-1.47534,3.73891c0.20594,0.01997 0.38007,0.01997 0.5598,0.01997l0.56168,0c0.21344,0 0.36135,0 0.5673,-0.01997l-0.21344,-3.73891zm0,0"/>
    <path fill="#0a70a3" fill-rule="nonzero" stroke-width="0.35278" id="path13197" d="m9.74159,46.98353c-0.28833,0 -0.48491,0.00998 -0.77325,0.0325l-0.03369,-0.07748l0.06549,-0.41487c-0.26212,0.24992 -0.6085,0.55733 -1.18515,0.55733c-0.98857,0 -1.55773,-0.98722 -1.55773,-2.19686c0,-0.60483 0.15728,-1.39711 0.43811,-2.00193c0.69087,-1.46207 1.77866,-1.65204 2.60995,-1.65204c0.20782,0 0.35386,0.01248 0.5598,0.035c0.28833,-1.79198 0.34637,-2.17687 0.40441,-2.72671l0.06549,-0.07748c0.32951,-0.06498 0.55232,-0.11995 0.88183,-0.19994l0.04117,0.06747c-0.37071,1.85946 -1.24319,6.99549 -1.44913,8.59003l-0.06729,0.06496zm-0.02432,-4.8711c-0.06549,-0.02251 -0.20408,-0.03499 -0.37821,-0.03499c-1.12148,0 -1.67194,0.65232 -1.96963,1.48456c-0.05611,0.16745 -0.20594,0.64981 -0.20594,1.17717c0,0.81476 0.33889,1.46458 1.02226,1.46458c0.19846,0 0.72457,-0.19994 0.93801,-0.54984l0.59351,-3.54148zm0,0"/>
    <path fill="#0a70a3" fill-rule="nonzero" stroke-width="0.35278" id="path13199" d="m12.75781,46.99602c-0.35386,0.00998 -0.601,0.01997 -0.95673,0.04248l-0.07296,-0.06747c-0.05801,-1.02221 -0.37071,-4.39625 -0.47743,-5.5734l0.04864,-0.07748c0.31267,0 0.53547,-0.02253 0.84065,-0.05495l0.05801,0.06498c0.03179,0.62731 0.04864,1.06719 0.08981,1.69451l0.19846,3.06911c1.39111,-3.60646 1.57272,-4.06883 1.81985,-4.75113l0.07486,-0.04498l0.31267,0c0.16476,0 0.28085,0 0.4456,-0.00999l0.03926,0.07748c-0.24526,0.56985 -0.55793,1.25214 -0.81444,1.86947l-0.69086,1.65951c-0.29769,0.7023 -0.56168,1.32213 -0.84065,2.04442l-0.07474,0.05744zm0,0"/>
    <path fill="#0a70a3" fill-rule="nonzero" stroke-width="0.35278" id="path13201" d="m18.40083,47.00602l-0.21344,0c-0.20594,0 -0.35386,0.00998 -0.5598,0.01997l-0.04117,-0.06498l0.05611,-0.43988c-0.38755,0.41739 -0.79758,0.54984 -1.20199,0.54984c-0.9717,0 -1.52402,-0.96722 -1.52402,-2.14437c0,-0.81228 0.26211,-1.57205 0.38755,-1.85946c0.68337,-1.60454 1.90223,-1.792 2.76721,-1.792c0.38755,0 1.2282,0.02253 1.2282,0.02253l0.04117,0.07748c-0.6684,3.88138 -0.77512,4.5062 -0.88183,5.56339l-0.05799,0.06749zm-1.58956,-0.79228c0.25462,0 0.66653,-0.15494 0.95673,-0.54983c0.20408,-1.12218 0.36883,-2.27686 0.59164,-3.5415c-0.09918,0 -0.2228,-0.02245 -0.35386,-0.02245c-0.79009,0 -1.58955,0.3299 -2.00145,1.63954c-0.05054,0.15494 -0.18161,0.59482 -0.18161,1.10966c0,0.78228 0.34636,1.36461 0.98855,1.36461"/>
    <path fill="#0a70a3" fill-rule="nonzero" stroke-width="0.35278" id="path13203" d="m23.16387,47.00602c-0.31454,0 -0.52797,0.00998 -0.84064,0.0325l-0.03369,-0.07748c0.11603,-0.73729 0.23029,-1.22964 0.34637,-1.95693l0.19658,-1.25465c0.02622,-0.16495 0.09171,-0.51484 0.09171,-0.81226c0,-0.81476 -0.53547,-0.84727 -0.70023,-0.84727c-0.50176,0 -0.89869,0.3949 -1.08779,0.58235c-0.23029,1.41958 -0.46994,2.83918 -0.66653,4.26627l-0.05801,0.06747c-0.31454,0 -0.52798,0.00998 -0.84065,0.03252l-0.04117,-0.0775c0.27148,-1.44958 0.79009,-4.50868 0.865,-5.49841l0.05801,-0.07498c0.32015,-0.05746 0.55232,-0.11246 0.87247,-0.19994l0.04307,0.07748l-0.11603,0.56232c0.601,-0.61731 1.19451,-0.6723 1.38361,-0.6723c0.24714,0 1.19451,0.05495 1.19451,1.46207c0,0.3624 -0.10679,1.09969 -0.27148,2.1219l-0.12364,0.78226c-0.08233,0.52736 -0.15728,0.88976 -0.20594,1.4171l-0.06553,0.06747zm0,0"/>
    <path fill="#0a70a3" fill-rule="nonzero" stroke-width="0.35278" id="path13205" d="m27.35588,46.83107c-0.28832,0.21994 -0.77512,0.30741 -1.06344,0.30741c-1.06158,0 -1.79551,-1.06719 -1.79551,-2.4643c0,-0.91473 0.29769,-2.33183 1.20387,-3.06911c0.47743,-0.38487 0.97919,-0.43986 1.20199,-0.43986c0.57853,0 1.02975,0.18744 1.27688,0.43986l0.02432,0.07748c-0.08981,0.31991 -0.13854,0.54984 -0.20594,0.86975l-0.08233,0.0325c-0.13111,-0.29742 -0.4924,-0.54984 -0.93051,-0.54984c-1.02975,0 -1.58955,1.45208 -1.58955,2.55177c0,1.28463 0.7489,1.66201 1.14581,1.66201c0.13855,0 0.5673,-0.02501 1.00354,-0.52984l0.06739,0.04248c-0.09171,0.36491 -0.14042,0.61733 -0.20594,0.99223l-0.05058,0.07746zm0,0"/>
    <path fill="#0a70a3" fill-rule="nonzero" stroke-width="0.35278" id="path13207" d="m28.91361,46.99602c-0.32015,0 -0.55232,0.00998 -0.87247,0.0325l-0.04117,-0.06749c0.26212,-1.27463 0.84814,-4.90359 0.88933,-5.49841l0.05801,-0.07748c0.33701,-0.05495 0.5673,-0.09747 0.89682,-0.17494l0.04117,0.07748c-0.04117,-0.01248 -0.72457,4.1788 -0.91366,5.65086l-0.05803,0.05747zm1.17766,-7.24791c-0.32017,0.05495 -0.54296,0.08747 -0.865,0.15496l-0.04864,-0.08998c0.06549,-0.3749 0.11603,-0.63732 0.17225,-1.01222l0.07486,-0.07498c0.32203,-0.05495 0.54296,-0.08998 0.85562,-0.15496l0.06739,0.07748c-0.07486,0.3624 -0.12364,0.63732 -0.1891,1.01222l-0.06739,0.08747zm0,0"/>
    <path fill="#0a70a3" fill-rule="nonzero" stroke-width="0.35278" id="path13209" d="m33.67666,47.00602c-0.31454,0 -0.52798,0.00998 -0.84065,0.0325l-0.03369,-0.07748c0.11603,-0.73729 0.23029,-1.22964 0.34637,-1.95693l0.19846,-1.25465c0.02432,-0.16495 0.08981,-0.51484 0.08981,-0.81226c0,-0.81476 -0.53547,-0.84727 -0.70022,-0.84727c-0.50178,0 -0.89682,0.3949 -1.08779,0.58235c-0.23029,1.41958 -0.46807,2.83918 -0.66653,4.26627l-0.05801,0.06747c-0.31267,0 -0.52798,0.00998 -0.84065,0.03252l-0.04117,-0.0775c0.27147,-1.44958 0.79009,-4.50868 0.86498,-5.49841l0.05801,-0.07498c0.32203,-0.05746 0.55232,-0.11246 0.87434,-0.19994l0.04117,0.07748l-0.11603,0.56232c0.60098,-0.61731 1.19451,-0.6723 1.38361,-0.6723c0.24714,0 1.1945,0.05495 1.1945,1.46207c0,0.3624 -0.10665,1.09969 -0.27335,2.1219l-0.12173,0.78226c-0.08233,0.52736 -0.15728,0.88976 -0.20594,1.4171l-0.06549,0.06747zm0,0"/>
    <path fill="#0a70a3" fill-rule="nonzero" stroke-width="0.35278" id="path13211" d="m39.42638,41.35265c-0.23029,1.24213 -0.43623,2.37681 -0.63469,3.61646l-0.23029,1.45458c-0.28833,1.82448 -0.52798,3.36403 -2.33098,3.36403c-0.49428,0 -1.23569,-0.15496 -1.69815,-0.82476l0,-0.08998c0.1235,-0.25244 0.20596,-0.43738 0.32953,-0.7023l0.06549,0c0.2228,0.38489 0.63469,0.78226 1.24505,0.78226c1.22822,0 1.32556,-1.51705 1.41731,-1.89445l0.08057,-0.44737c-0.54296,0.50487 -1.02787,0.51486 -1.20948,0.51486c-0.9717,0 -1.48283,-0.98971 -1.48283,-2.13189c0,-0.27491 0.03179,-1.20965 0.46993,-2.11189c0.77325,-1.59454 2.01082,-1.59454 2.95632,-1.59454c0.41189,0 0.98855,-0.02245 0.98855,-0.02245l0.03367,0.08744zm-1.01288,0.78977c0,0 -0.24714,-0.00749 -0.32204,-0.00749c-0.74141,0 -1.54087,0.17494 -1.99396,1.45957c-0.19658,0.57484 -0.22279,1.02471 -0.22279,1.26714c0,1.14216 0.55232,1.4071 0.96422,1.4071c0.45308,0 0.78261,-0.30741 0.9642,-0.53985l0.61037,-3.58648zm0,0"/>
    <path fill="#0a70a3" fill-rule="nonzero" stroke-width="0.35278" id="path13213" d="m43.98161,47.00602c-0.32015,0 -0.54296,0.00998 -0.87247,0.01997l-0.04117,-0.06498c0.19846,-1.07968 1.11962,-6.19072 1.19451,-6.80803c-0.90618,0.01246 -1.30123,0.03499 -1.68878,0.04498l-0.04117,-0.06749c0.07296,-0.31741 0.1235,-0.53735 0.18161,-0.85726l0.06549,-0.05495c0.37819,0.01248 0.98107,0.02253 1.47534,0.02253c0.47743,0 2.16621,-0.00999 2.66049,-0.0325l0.04117,0.06498c-0.06549,0.28741 -0.11603,0.53983 -0.18161,0.85724l-0.05801,0.05746c-0.32953,-0.03499 -0.81444,-0.03499 -1.53901,-0.04498c-0.16476,0.7498 -0.23215,1.29714 -0.36322,2.06941l-0.41939,2.50677c-0.1235,0.74728 -0.23965,1.45208 -0.34637,2.21936l-0.0674,0.06749zm0,0"/>
    <path fill="#0a70a3" fill-rule="nonzero" stroke-width="0.35278" id="path13215" d="m48.98619,46.6986c-0.28085,0.21744 -0.70959,0.43988 -1.34242,0.43988c-1.40981,0 -1.91158,-1.12218 -1.91158,-2.38932c0,-1.92194 0.87997,-3.58396 2.30663,-3.58396c0.9717,0 1.66258,0.59482 1.66258,2.0594c0,0.44737 -0.07296,0.83227 -0.09918,0.99972l-0.05611,0.05245c-0.42875,0 -1.21136,-0.00998 -1.92844,-0.00998c-0.37071,0 -0.64219,0 -1.0129,0.02253c-0.00679,0.06498 -0.02432,0.26244 -0.02432,0.47237c0,1.44209 0.93801,1.47457 1.2357,1.47457c0.68337,0 1.03723,-0.35239 1.35926,-0.65981l0.06549,0.05497c-0.08981,0.36239 -0.1479,0.61481 -0.21343,0.98971l-0.04128,0.07746zm-0.10665,-3.20156c0.03179,-0.25242 0.04117,-0.3624 0.04117,-0.48238c-0.01685,-0.9997 -0.63469,-1.07968 -0.85001,-1.07968c-0.94736,0 -1.26752,1.16717 -1.35926,1.57456c0,0 1.6401,-0.01248 2.16809,-0.01248"/>
    <path fill="#0a70a3" fill-rule="nonzero" stroke-width="0.35278" id="path13217" d="m52.99845,46.83107c-0.28832,0.21994 -0.77511,0.30741 -1.06344,0.30741c-1.06158,0 -1.79551,-1.06719 -1.79551,-2.4643c0,-0.91473 0.29582,-2.33183 1.20199,-3.06911c0.4793,-0.38487 0.9792,-0.43986 1.20387,-0.43986c0.57665,0 1.02787,0.18744 1.27501,0.43986l0.02622,0.07748c-0.08981,0.31991 -0.14042,0.54984 -0.20596,0.86975l-0.08233,0.0325c-0.13111,-0.29742 -0.49428,-0.54984 -0.93051,-0.54984c-1.02976,0 -1.58956,1.45208 -1.58956,2.55177c0,1.28463 0.7489,1.66201 1.14395,1.66201c0.13855,0 0.5673,-0.02501 1.00541,-0.52984l0.06549,0.04248c-0.08994,0.36491 -0.14042,0.61733 -0.20594,0.99223l-0.04869,0.07746zm0,0"/>
    <path fill="#0a70a3" fill-rule="nonzero" stroke-width="0.35278" id="path13219" d="m57.29718,47.00602c-0.31267,0 -0.5336,0.00998 -0.83877,0.01997l-0.04307,-0.06498c0.07486,-0.39739 0.16476,-0.86725 0.23217,-1.26464l0.23778,-1.3846c0.04864,-0.29742 0.1891,-1.14467 0.1891,-1.44209c0,-0.76977 -0.50926,-0.80227 -0.65904,-0.80227c-0.50926,0 -0.99605,0.45238 -1.13647,0.61483l-0.32951,1.95943c-0.13111,0.76979 -0.23029,1.50707 -0.34637,2.28685l-0.05801,0.06747c-0.3033,0 -0.52423,0.00998 -0.83129,0.01997l-0.04864,-0.06498c0.11603,-0.7048 1.24319,-6.77555 1.36863,-8.42506l0.06549,-0.06498c0.32765,-0.06498 0.56729,-0.10998 0.89869,-0.19995l0.03926,0.07748c-0.23217,1.15716 -0.4119,2.30934 -0.62722,3.4765c0.2565,-0.23244 0.7433,-0.64981 1.42667,-0.64981c0.21343,0 1.13647,0.06498 1.13647,1.38712c0,0.48484 -0.08057,0.98971 -0.14792,1.3846l-0.22279,1.32961c-0.08981,0.54984 -0.17225,1.12218 -0.24715,1.67202l-0.058,0.06754zm0,0"/>
    <path fill="#0a70a3" fill-rule="nonzero" stroke-width="0.35278" id="path13221" d="m62.06023,47.00602c-0.31268,0 -0.52798,0.00998 -0.83877,0.0325l-0.03369,-0.07748c0.11426,-0.73729 0.23028,-1.22964 0.3445,-1.95693l0.19846,-1.25465c0.02432,-0.16495 0.09171,-0.51484 0.09171,-0.81226c0,-0.81476 -0.53734,-0.84727 -0.70209,-0.84727c-0.50178,0 -0.89682,0.3949 -1.08779,0.58235c-0.23029,1.41958 -0.46807,2.83918 -0.66654,4.26627l-0.05801,0.06747c-0.31268,0 -0.52611,0.00998 -0.83879,0.03252l-0.04117,-0.0775c0.27148,-1.44958 0.79009,-4.50868 0.86312,-5.49841l0.05801,-0.07498c0.32203,-0.05746 0.55232,-0.11246 0.87434,-0.19994l0.04117,0.07748l-0.11603,0.56232c0.60287,-0.61731 1.19451,-0.6723 1.38361,-0.6723c0.24714,0 1.19638,0.05495 1.19638,1.46207c0,0.3624 -0.10679,1.09969 -0.27336,2.1219l-0.1235,0.78226c-0.08233,0.52736 -0.15726,0.88976 -0.20594,1.4171l-0.06561,0.06747zm0,0"/>
    <path fill="#0a70a3" fill-rule="nonzero" stroke-width="0.35278" id="path13223" d="m65.66997,41.16521c1.02038,0 1.7618,0.69479 1.7618,2.15687c0,1.15468 -0.39505,3.81391 -2.34034,3.81391c-0.51861,0 -1.71312,-0.16495 -1.71312,-2.19686c0,-1.782 0.72643,-3.77392 2.29166,-3.77392m-0.56169,5.15851c1.24506,0 1.45102,-2.68422 1.45102,-3.05662c0,-1.06719 -0.4868,-1.29714 -0.85751,-1.29714c-1.13647,0 -1.44913,2.25437 -1.44913,3.04662c0,0.7023 0.24714,1.30713 0.85562,1.30713"/>
    <path fill="#0a70a3" fill-rule="nonzero" stroke-width="0.35278" id="path13225" d="m68.70116,47.00602c-0.30518,0.00998 -0.52798,0.00998 -0.83877,0.0325l-0.03369,-0.06749c0.12173,-0.88974 1.00354,-5.70585 1.29373,-8.44506l0.05611,-0.07748c0.33701,-0.06498 0.56916,-0.11997 0.90804,-0.20743l0.03926,0.06496c-0.41189,2.37683 -1.24319,7.62031 -1.35926,8.63252l-0.06542,0.06747zm0,0"/>
    <path fill="#0a70a3" fill-rule="nonzero" stroke-width="0.35278" id="path13227" d="m72.27533,41.16521c1.02225,0 1.76367,0.69479 1.76367,2.15687c0,1.15468 -0.39505,3.81391 -2.34034,3.81391c-0.51862,0 -1.71313,-0.16495 -1.71313,-2.19686c0,-1.782 0.72644,-3.77392 2.2898,-3.77392m-0.55982,5.15851c1.24506,0 1.45101,-2.68422 1.45101,-3.05662c0,-1.06719 -0.48679,-1.29714 -0.8575,-1.29714c-1.13647,0 -1.44913,2.25437 -1.44913,3.04662c0,0.7023 0.24714,1.30713 0.85562,1.30713"/>
    <path fill="#0a70a3" fill-rule="nonzero" stroke-width="0.35278" id="path13229" d="m79.00612,41.35265c-0.23029,1.24213 -0.43623,2.37681 -0.63283,3.61646l-0.23028,1.45458c-0.28833,1.82448 -0.52798,3.36403 -2.33098,3.36403c-0.49428,0 -1.2357,-0.15496 -1.69815,-0.82476l0,-0.08998c0.1235,-0.25244 0.20594,-0.43738 0.32951,-0.7023l0.06549,0c0.2228,0.38489 0.63471,0.78226 1.24319,0.78226c1.2282,0 1.32744,-1.51705 1.41917,-1.89445l0.08057,-0.44737c-0.54296,0.50487 -1.02975,0.51486 -1.20948,0.51486c-0.9717,0 -1.48284,-0.98971 -1.48284,-2.13189c0,-0.27491 0.03369,-1.20965 0.46807,-2.11189c0.77512,-1.59454 2.01081,-1.59454 2.95818,-1.59454c0.4119,0 0.98857,-0.02245 0.98857,-0.02245l0.03181,0.08744zm-1.0129,0.78977c0,0 -0.24714,-0.00749 -0.32015,-0.00749c-0.74141,0 -1.54088,0.17494 -1.99396,1.45957c-0.19846,0.57484 -0.2228,1.02471 -0.2228,1.26714c0,1.14216 0.55232,1.4071 0.96422,1.4071c0.4531,0 0.78261,-0.30741 0.96422,-0.53985l0.60848,-3.58648zm0,0"/>
    <path fill="#0a70a3" fill-rule="nonzero" stroke-width="0.35278" id="path13231" d="m83.47335,41.36515c-0.99043,2.13189 -3.30268,7.31289 -3.61722,8.24761l-0.06549,0.065l-0.37071,0c-0.16476,0 -0.32204,0 -0.48679,0.01248l-0.02432,-0.07748c0.23965,-0.48486 1.05408,-2.16688 1.25254,-2.65174c-0.31454,-2.73671 -0.61784,-5.45343 -0.65904,-5.5859l0.05611,-0.07748c0.31454,0 0.53547,-0.02251 0.8575,-0.05495l0.06549,0.05495c0.04307,0.60734 0.06739,1.0322 0.1235,1.62953l0.23965,2.59426l0.80133,-1.89196c0.31079,-0.73478 0.62347,-1.48456 0.91929,-2.27684l0.06739,-0.06498c0.08981,0.00998 0.17975,0.00998 0.27148,0.00998c0.1966,0 0.33889,-0.00998 0.52798,-0.02251l0.0413,0.09003zm0,0"/>
    <path fill="#0a70a3" fill-rule="nonzero" stroke-width="0.35278" id="path13233" d="m31.40935,60.52963c-0.31455,0.01251 -0.52798,0.02253 -0.83316,0.04498l-0.04117,-0.06749c0.29021,-1.792 0.1254,-0.7373 0.79947,-4.84861c-0.1554,0 -0.39505,0.00998 -0.62534,0.00998l-0.04864,-0.06498c0.05625,-0.27491 0.09918,-0.46237 0.14792,-0.73729l0.06549,-0.07748c0.21344,0.02245 0.37071,0.0325 0.58415,0.0325l0.1235,-0.79228c0.18161,-1.17467 0.33887,-2.16688 1.49033,-2.16688c0.29019,0 0.47929,0.06749 0.60286,0.09999l0.04117,0.08747c-0.05801,0.27742 -0.09918,0.47485 -0.14978,0.74728l-0.06549,0.06749c-0.05611,-0.00998 -0.17224,-0.07748 -0.32015,-0.07748c-0.51862,0 -0.601,0.45236 -0.75077,1.33211l-0.11426,0.7023l0.14042,0c0.23965,0 0.40254,0 0.64219,-0.00998l0.04117,0.08747c-0.05801,0.21994 -0.09918,0.43988 -0.15728,0.7048l-0.06549,0.07748c-0.26399,-0.01248 -0.45308,-0.02253 -0.72457,-0.02253c-0.26399,1.747 -0.53547,3.08912 -0.72457,4.80612l-0.05799,0.06502zm0,0"/>
    <path fill="#0a70a3" fill-rule="nonzero" stroke-width="0.35278" id="path13235" d="m35.24748,54.69131c1.02226,0 1.76369,0.69229 1.76369,2.15438c0,1.15466 -0.39505,3.81639 -2.34034,3.81639c-0.51862,0 -1.71313,-0.16744 -1.71313,-2.19936c0,-1.78449 0.72457,-3.77141 2.28978,-3.77141m-0.5598,5.15601c1.24319,0 1.44913,-2.68422 1.44913,-3.05912c0,-1.06218 -0.48491,-1.29712 -0.85562,-1.29712c-1.13647,0 -1.45101,2.25685 -1.45101,3.04662c0,0.7048 0.24901,1.30962 0.8575,1.30962"/>
    <path fill="#0a70a3" fill-rule="nonzero" stroke-width="0.35278" id="path13237" d="m38.23937,60.52963c-0.32204,0 -0.54483,0.01251 -0.8575,0.02253l-0.04117,-0.06749c0.34637,-1.72701 0.81632,-4.56119 0.89869,-5.49843l0.05611,-0.07498c0.3314,-0.05746 0.56918,-0.09997 0.8912,-0.18744l0.04117,0.07748c-0.06549,0.31741 -0.11603,0.60231 -0.18161,0.96472c0.1235,-0.27243 0.48679,-1.08719 1.07094,-1.08719c0.18161,0 0.29582,0.05497 0.38007,0.12248l0.02432,0.09747c-0.12364,0.39489 -0.20594,0.6723 -0.32203,1.0772l-0.08233,0.03499c-0.05801,-0.05495 -0.1891,-0.15744 -0.34637,-0.15744c-0.22093,0 -0.73205,0.15744 -0.98855,1.58453c-0.07486,0.41988 -0.40254,2.30934 -0.47743,3.01414l-0.06551,0.07744zm0,0"/>
    <path fill="#0a70a3" fill-rule="nonzero" stroke-width="0.35278" id="path13239" d="m47.18693,60.51964c-0.23965,0 -0.56168,0.02245 -0.88933,0.02245l-0.03369,-0.05746c0.24528,-1.36461 0.4194,-2.31933 0.64219,-3.69395c-0.31267,-0.01248 -0.53547,-0.01248 -0.84065,-0.01248l-0.86498,0c-0.36135,0 -0.61786,0 -0.98857,0.035c-0.22092,1.20965 -0.39504,2.44181 -0.58414,3.65144l-0.05801,0.06498c-0.32953,0 -0.56168,0 -0.88184,0.02253l-0.04117,-0.07748c0.09171,-0.49485 1.10463,-6.28069 1.28624,-7.65279l0.05801,-0.06749c0.32951,0 0.5598,-0.00998 0.87997,-0.02251l0.04117,0.06498c-0.23778,1.31961 -0.21343,1.11217 -0.53546,3.06911c0.03369,0 0.337,0.01248 0.5598,0.01248c0.73393,0 1.56522,-0.01248 2.12689,-0.0325c0.28833,-1.762 0.38568,-2.40931 0.47743,-3.02414l0.05611,-0.06749c0.32953,0 0.56168,-0.00998 0.8912,-0.02253l0.03179,0.065c-0.51862,2.96913 -1.08779,6.29317 -1.27688,7.65529l-0.0561,0.06752zm0,0"/>
    <path fill="#0a70a3" fill-rule="nonzero" stroke-width="0.35278" id="path13241" d="m51.97994,60.51964c-0.29582,0.00996 -0.51112,0.02245 -0.80695,0.04248l-0.04117,-0.07748l0.09918,-0.52736c-0.42875,0.47237 -0.90619,0.6823 -1.34242,0.6823c-1.0054,0 -1.2282,-0.91223 -1.2282,-1.50705c0,-0.39489 0.06549,-0.81228 0.21344,-1.68202l0.17411,-1.02221c0.08233,-0.48486 0.14792,-0.82476 0.23965,-1.51706l0.05611,-0.07748c0.30518,0 0.51862,-0.02253 0.8238,-0.04498l0.04117,0.06498c-0.3033,1.67202 -0.64218,3.419 -0.64218,3.91636c0,0.31991 0.06549,0.94473 0.70771,0.94473c0.37258,0 0.7433,-0.20743 1.09716,-0.63732c0.42875,-2.57426 0.61784,-3.81639 0.65716,-4.1663l0.06549,-0.06747c0.30704,-0.00998 0.52048,-0.03252 0.83315,-0.05497l0.03369,0.07748c-0.25649,1.28713 -0.84064,4.8386 -0.92302,5.5859l-0.05788,0.06747zm0,0"/>
    <path fill="#0a70a3" fill-rule="nonzero" stroke-width="0.35278" id="path13243" d="m59.18255,60.52963c-0.29768,0 -0.51112,0.01251 -0.80882,0.02253l-0.04864,-0.07748c0.12364,-0.63982 0.23778,-1.30964 0.35386,-1.95945l0.1479,-0.84476c0.11603,-0.65981 0.16476,-1.07718 0.16476,-1.28713c0,-0.73729 -0.47743,-0.75977 -0.61784,-0.75977c-0.51112,0 -0.92302,0.39739 -1.10276,0.60483c-0.00951,0.21994 -0.05801,0.75977 -0.17412,1.44207l-0.18724,1.15468c-0.09171,0.55984 -0.17599,1.07718 -0.249,1.63952l-0.05801,0.06498c-0.3033,0 -0.51862,0.01251 -0.8238,0.02253l-0.04117,-0.08747c0.13111,-0.6723 0.63469,-3.37903 0.63469,-4.05882c0,-0.72479 -0.46244,-0.78228 -0.61784,-0.78228c-0.44372,0 -0.84814,0.40738 -0.99791,0.58483l-0.27148,1.63954c-0.1554,0.96472 -0.27148,1.63702 -0.39505,2.61674l-0.05801,0.05247c-0.31268,0.01251 -0.52611,0.01251 -0.8313,0.035l-0.04864,-0.07748c0.32015,-1.61703 0.79758,-4.58618 0.87997,-5.49841l0.04864,-0.06498c0.3314,-0.05746 0.56169,-0.10998 0.87436,-0.18746l0.05054,0.07748l-0.10856,0.55984c0.23215,-0.26492 0.76762,-0.6723 1.40981,-0.6723c0.1891,0 0.69273,0.07748 0.89682,0.80477c0.68525,-0.72729 1.33493,-0.80477 1.55773,-0.80477c0.601,0 1.11961,0.44237 1.11961,1.34212c0,0.37488 -0.06549,0.78226 -0.13854,1.22215l-0.14042,0.83475c-0.14979,0.86725 -0.2228,1.49458 -0.36322,2.37683l-0.0563,0.06493zm0,0"/>
    <path fill="#0a70a3" fill-rule="nonzero" stroke-width="0.35278" id="path13245" d="m63.95122,60.52963l-0.21344,0c-0.20594,0 -0.35386,0.01251 -0.5598,0.02253l-0.04117,-0.06749l0.05611,-0.43988c-0.38569,0.41988 -0.79759,0.54984 -1.20199,0.54984c-0.97172,0 -1.52404,-0.96722 -1.52404,-2.14439c0,-0.81226 0.264,-1.57204 0.38755,-1.85696c0.68339,-1.60704 1.9041,-1.79198 2.7691,-1.79198c0.38568,0 1.22633,0.01997 1.22633,0.01997l0.04117,0.07746c-0.66653,3.88139 -0.77512,4.50872 -0.88184,5.56591l-0.05797,0.06498zm-1.58956,-0.79228c0.2565,0 0.6684,-0.15496 0.95486,-0.54984c0.20596,-1.12218 0.37071,-2.27684 0.59539,-3.54148c-0.10108,0 -0.22468,-0.02253 -0.35573,-0.02253c-0.79009,0 -1.58955,0.33241 -2.00145,1.63952c-0.04864,0.15496 -0.18161,0.59484 -0.18161,1.11219c0,0.77978 0.34637,1.36211 0.98855,1.36211"/>
    <path fill="#0a70a3" fill-rule="nonzero" stroke-width="0.35278" id="path13247" d="m68.71427,60.52963c-0.31268,0 -0.52798,0.01251 -0.84065,0.0325l-0.03369,-0.07748c0.11603,-0.73729 0.23215,-1.22966 0.34636,-1.95695l0.19846,-1.25463c0.02432,-0.16247 0.08994,-0.51486 0.08994,-0.81226c0,-0.81478 -0.5336,-0.84727 -0.70023,-0.84727c-0.50176,0 -0.89682,0.39739 -1.08779,0.58233c-0.23029,1.4196 -0.46807,2.83669 -0.66653,4.26877l-0.05801,0.06498c-0.31267,0 -0.5261,0.01251 -0.84064,0.0325l-0.03926,-0.07748c0.27147,-1.45208 0.79009,-4.5087 0.86311,-5.49841l0.05801,-0.07498c0.32204,-0.05746 0.55232,-0.10998 0.87434,-0.19995l0.03926,0.07748l-0.11426,0.55984c0.60287,-0.61481 1.19451,-0.6698 1.38361,-0.6698c0.24714,0 1.19638,0.05495 1.19638,1.46207c0,0.3624 -0.10856,1.09969 -0.27335,2.12438l-0.1235,0.77978c-0.08233,0.52736 -0.1554,0.88976 -0.20408,1.4196l-0.06748,0.06496zm0,0"/>
    <path fill="#0a70a3" fill-rule="nonzero" stroke-width="0.35278" id="path13249" d="m70.73257,60.51964c-0.32015,0 -0.55232,0.00996 -0.87247,0.0325l-0.04117,-0.06749c0.26212,-1.27463 0.84814,-4.9036 0.88933,-5.49843l0.05801,-0.07498c0.33887,-0.05746 0.56916,-0.09997 0.89682,-0.17494l0.04307,0.07498c-0.04307,-0.00998 -0.72644,4.17629 -0.91554,5.65337l-0.05805,0.05499zm1.17766,-7.24793c-0.32017,0.05497 -0.54296,0.08747 -0.86312,0.15496l-0.05054,-0.08998c0.06739,-0.37488 0.11603,-0.63732 0.17225,-1.00971l0.07486,-0.07746c0.32204,-0.05497 0.54297,-0.08998 0.85751,-0.15496l0.06549,0.07748c-0.07486,0.36239 -0.12364,0.63732 -0.1891,1.0097l-0.06735,0.08998zm0,0"/>
    <path fill="#0a70a3" fill-rule="nonzero" stroke-width="0.35278" id="path13251" d="m73.65893,60.50714c-0.27336,0.08747 -0.48866,0.09997 -0.59539,0.09997c-0.78261,0 -0.9792,-0.53985 -0.9792,-1.0897c0,-0.41738 0.17226,-1.3846 0.4119,-2.71672l0.20596,-1.14216l-0.16476,0c-0.15726,0 -0.27335,0 -0.42875,0.00998l-0.04117,-0.07748c0.05801,-0.25242 0.09918,-0.44988 0.1479,-0.72479l0.05801,-0.05497c0.21532,0.00998 0.35386,0.00998 0.56916,0.00998c0.09918,-0.50735 0.14792,-0.86975 0.22093,-1.3746l0.05992,-0.07748c0.32017,-0.08747 0.54296,-0.16245 0.85564,-0.27241l0.04117,0.06244c-0.06549,0.29742 -0.10679,0.51985 -0.16476,0.81727l-0.15726,0.84476c0.33887,0 0.56916,0 0.89869,-0.01997l0.04117,0.07498c-0.07486,0.26492 -0.11603,0.46237 -0.17412,0.72729l-0.05611,0.06498c-0.31454,-0.00998 -0.53547,-0.00998 -0.84814,-0.00998l-0.4456,2.48428c-0.04117,0.21994 -0.15728,0.90224 -0.15728,1.12218c0,0.35239 0.19097,0.47237 0.40441,0.47237c0.21343,0 0.4119,-0.10996 0.48491,-0.14246l0.04307,0.05495c-0.06739,0.28492 -0.11603,0.48486 -0.17412,0.76979l-0.05618,0.08751zm0,0"/>
    <path fill="#0a70a3" fill-rule="nonzero" stroke-width="0.35278" id="path13253" d="m78.68597,54.88876c-0.98857,2.13438 -3.30268,7.31288 -3.61535,8.24511l-0.06739,0.06747l-0.37069,0c-0.1629,0 -0.32017,0 -0.48493,0.00998l-0.02432,-0.07748c0.23965,-0.48236 1.05409,-2.16437 1.25068,-2.64924c-0.31267,-2.73671 -0.61784,-5.45343 -0.65716,-5.58588l0.05611,-0.07748c0.31454,0 0.53734,-0.01997 0.8575,-0.05497l0.06549,0.05497c0.04117,0.60732 0.06549,1.0322 0.1235,1.62703l0.23965,2.59675l0.79947,-1.89195c0.31267,-0.73729 0.62533,-1.48458 0.92115,-2.27684l0.06549,-0.065c0.09171,0.00998 0.18161,0.00998 0.27335,0.00998c0.1966,0 0.33701,-0.00998 0.52611,-0.01995l0.04136,0.08751zm0,0"/>
    <path fill="#0a70a3" fill-rule="nonzero" stroke-width="0.35278" id="path13255" d="m27.92131,5.09059l5.09819,0l0,24.56793l-5.09819,0l0,-24.56793zm0,0"/>
    <path fill="#0a70a3" fill-rule="nonzero" stroke-width="0.35278" id="path13257" d="m35.69497,29.65852l0,-24.56793l14.01954,0l0,4.76112l-8.92324,0l0,5.07104l8.20802,0l0,4.76364l-8.20802,0l0,5.20599l8.92324,0l0,4.76613l-14.01954,0zm0,0"/>
    <path fill="#0a70a3" fill-rule="nonzero" stroke-width="0.35278" id="path13259" d="m52.5697,29.65852l0,-24.56793l14.0158,0l0,4.76112l-8.91762,0l0,5.07104l8.20427,0l0,4.76364l-8.20427,0l0,5.20599l8.91762,0l0,4.76613l-14.0158,0zm0,0"/>
    <path fill="#0a70a3" fill-rule="nonzero" stroke-width="0.35278" id="path13261" d="m69.44072,29.65852l0,-24.56793l14.01954,0l0,4.76112l-8.91762,0l0,5.07104l8.20427,0l0,4.76364l-8.20427,0l0,5.20599l8.91762,0l0,4.76613l-14.01954,0zm0,0"/>
    <path fill="#0a70a3" fill-rule="nonzero" stroke-width="0.35278" id="path13263" d="m11.56892,5.36552c0.81444,-0.84476 1.8367,-0.14244 2.52007,0.63481c0.71521,0.72979 1.46224,1.55706 2.11567,2.4043l0.11983,0.08998c1.81235,2.24686 3.4974,4.74114 4.88101,7.38038c0.22279,0.45987 0.42126,0.97972 0.29582,1.58954c-0.46058,1.53955 -1.39859,2.76671 -2.21677,4.10881c-1.77303,2.54927 -3.64343,5.01357 -5.7385,6.98049c-0.42312,0.39989 -0.99418,0.76728 -1.50155,0.45238c-1.54088,-1.07718 -2.84024,-2.84168 -4.19014,-4.44872c-1.56335,-1.93694 -3.13418,-4.19129 -4.31933,-6.5506c-0.17599,-0.32992 -0.22654,-0.73979 -0.22093,-1.17467c0.15353,-0.81476 0.56918,-1.48458 0.96609,-2.17188c1.40045,-2.38181 3.11546,-4.64367 4.84917,-6.70806c0.04117,-0.05247 0.11426,-0.16495 0.17786,-0.21994c0.7433,-0.85976 1.48284,-1.61954 2.2617,-2.36681m2.38341,-2.4793l-0.91929,-1.74199c-0.11426,-0.08998 -0.25462,-0.24243 -0.37819,-0.28741c-0.27148,-0.15746 -0.56543,0.0325 -0.78636,0.25741l-1.66445,2.89417c-2.67172,4.41622 -5.83398,8.54005 -9.28457,11.70164c-0.27147,0.28491 -0.67776,0.56234 -0.76201,1.0322c-0.08981,0.41988 0.07486,0.76977 0.26961,1.0297c2.76346,2.54176 5.40524,5.5559 7.75493,8.99491c0.41753,0.58733 0.7564,1.16716 1.16455,1.717c0.68712,1.22215 1.49595,2.4518 2.12689,3.76392c0.19847,0.27742 0.23217,0.72978 0.54297,0.86475c0.24151,0.11246 0.54108,0.18994 0.77325,0l0.23028,-0.30741c2.85896,-5.40595 6.48367,-10.25955 10.53339,-14.17841c0.40628,-0.48486 1.17952,-0.66481 1.19076,-1.56206c-0.02812,-0.41237 -0.20782,-0.82225 -0.47555,-1.04718l-0.06549,-0.01505c-2.08382,-1.89196 -4.02723,-4.03385 -5.85645,-6.46064l-2.02205,-2.81919c-0.82005,-1.21215 -1.6139,-2.55676 -2.37216,-3.8364m-2.08384,3.14411c0.83129,-0.75479 1.57645,0.29991 2.2205,0.90472c2.49011,2.67425 4.83981,5.73585 6.62783,9.19486c0.22654,0.44487 0.32765,1.13718 0.12731,1.64202c-0.46621,1.03471 -1.09154,1.97693 -1.68505,2.93665l0,0.04997c-1.48097,2.1044 -3.04243,4.26627 -4.73309,6.04577c-0.8238,0.6723 -1.58019,2.13438 -2.64177,1.22713c-2.4171,-2.35932 -4.73122,-5.29098 -6.69149,-8.43507c-0.33326,-0.69229 -0.85189,-1.25713 -1.08404,-2.04192c-0.32204,-1.06218 0.38943,-1.82446 0.79571,-2.62424c1.99959,-3.29154 4.48408,-6.52062 7.06407,-8.89993m0.52423,2.16938l-0.22467,0.96472l-1.12898,4.32126c0.28271,0.03749 0.63283,0 0.90993,0.03749l0,0.035l-0.16476,4.88607l0.02812,0.05247c0.36135,0.04498 0.81257,0.06999 1.1814,-0.01505l0,-0.07748l-0.1479,-4.73613l0.02242,-0.15996l0.99418,-0.02253c-0.49615,-1.7495 -0.97733,-3.51649 -1.43977,-5.28598l-0.02996,0.00013zm-3.84376,6.76805c-0.63283,0.42487 -1.56522,1.06469 -1.46224,2.22435c0.13478,0.63231 0.64968,1.0422 1.05595,1.30463c2.24673,1.31961 5.22926,1.36459 7.60141,0.37989c0.58603,-0.30243 1.37237,-0.73979 1.47909,-1.69701c-0.00543,-0.79228 -0.63283,-1.28963 -1.08404,-1.59204l0,-0.03749c0.15726,-0.08499 0.337,-0.15746 0.49989,-0.18245l0,-0.01997c-0.79384,-0.18994 -1.56147,-0.46736 -2.33098,-0.73979c0.14792,0.45238 0.25464,0.92723 0.37821,1.39461c0.23215,-0.09747 0.46994,-0.17244 0.71894,-0.21744c0.40629,0.20993 0.98669,0.51236 1.04473,1.18965c0.04497,0.63233 -0.47555,0.94223 -0.8032,1.19717c-1.73934,0.84474 -3.69772,0.92723 -5.51195,0.28741c-0.50178,-0.21243 -1.22447,-0.48236 -1.28626,-1.33461c0.35573,-1.12218 1.27502,-1.35462 2.04452,-1.62704c-0.39504,-0.3399 -0.79758,-0.6423 -1.17952,-1.01971c-0.41378,0.0325 -0.79197,0.27243 -1.16455,0.48987m3.21281,4.8711c-0.06739,1.73448 -0.08424,3.33904 -0.17974,5.08103c0.513,0.05994 1.09527,0.11995 1.64198,0.01498l-0.16289,-4.84861l-0.02812,-0.22993c-0.41939,0.01997 -0.81443,0.04248 -1.27127,-0.01741"/>
    <path fill="#0a70a3" fill-rule="nonzero" stroke-width="0.35278" id="path13265" d="m16.55852,29.76099c-0.45497,0 -0.85937,0.41988 -0.85937,1.13966c0,0.7223 0.4044,1.14467 0.85937,1.14467c0.45121,0 0.85562,-0.42236 0.85562,-1.14467c0,-0.71978 -0.40441,-1.13966 -0.85562,-1.13966m0,2.01941l0,-0.00256c-0.33889,0.00256 -0.61223,-0.34989 -0.61223,-0.87724c0,-0.52235 0.27335,-0.87224 0.61223,-0.87224c0.33139,0 0.61222,0.34989 0.61222,0.87224c0,0.52736 -0.28083,0.87975 -0.61222,0.87975m0.38194,-1.12218c0,-0.27992 -0.13855,-0.36989 -0.37821,-0.36989l-0.34262,0l0,1.22715l0.1966,0l0,-0.51479l0.09361,0l0.21157,0.51484l0.23403,0l-0.23778,-0.53735c0.1254,-0.01498 0.2228,-0.09496 0.2228,-0.31991m-0.35012,0.13247l-0.17411,0l0,-0.29742l0.13854,0c0.07486,0 0.176,0.00998 0.176,0.13747c0,0.13746 -0.05054,0.15995 -0.14043,0.15995"/>
   </g>
  </g>
 </g>
</svg>